<svg width="1400" height="322" viewBox="0 0 1400 322" xmlns="http://www.w3.org/2000/svg"><title>Artboard</title><desc>Created with Sketch.</desc><defs><linearGradient x1="49.98%" y1="100.028%" x2="49.98%" y2="0%" id="a"><stop stop-color="#01BBBA" offset="0%"/><stop stop-color="#007FE9" offset="100%"/></linearGradient><linearGradient x1="49.979%" y1="100%" x2="49.979%" y2="0%" id="b"><stop stop-color="#01BBBA" offset="0%"/><stop stop-color="#007FE9" offset="100%"/></linearGradient><linearGradient x1="49.878%" y1="100.006%" x2="49.878%" y2="0%" id="c"><stop stop-color="#01BBBA" offset="0%"/><stop stop-color="#007FE9" offset="100%"/></linearGradient><linearGradient x1="49.98%" y1="100%" x2="49.98%" y2="0%" id="d"><stop stop-color="#01BBBA" offset="0%"/><stop stop-color="#007FE9" offset="100%"/></linearGradient><linearGradient x1="50%" y1="100%" x2="50%" y2="0%" id="e"><stop stop-color="#015C72" offset="0%"/><stop stop-color="#01ACC9" stop-opacity="0" offset="100%"/></linearGradient><linearGradient x1="50%" y1="100%" x2="50%" y2="0%" id="f"><stop stop-color="#01BBBA" offset="0%"/><stop stop-color="#007FE9" offset="100%"/></linearGradient><linearGradient x1="0%" y1="50.011%" y2="50.011%" id="g"><stop stop-color="#01BBBA" offset="0%"/><stop stop-color="#007FE9" offset="100%"/></linearGradient><linearGradient x1="-.002%" y1="50%" y2="50%" id="h"><stop stop-color="#01BBBA" stop-opacity="0" offset="0%"/><stop stop-color="#2E368F" offset="100%"/></linearGradient><linearGradient x1="99.988%" y1="50%" x2="-.014%" y2="50%" id="i"><stop stop-color="#01C5C9" stop-opacity="0" offset="0%"/><stop stop-color="#015C72" offset="100%"/></linearGradient><linearGradient x1=".004%" y1="49.892%" y2="49.892%" id="j"><stop stop-color="#01C5C9" stop-opacity="0" offset="0%"/><stop stop-color="#015C72" offset="84%"/></linearGradient><linearGradient x1="50.02%" y1="99.952%" x2="50.02%" y2="0%" id="k"><stop stop-color="#015C72" offset="0%"/><stop stop-color="#01ACC9" stop-opacity="0" offset="100%"/></linearGradient><linearGradient x1="49.98%" y1="100%" x2="49.98%" y2="0%" id="l"><stop stop-color="#015C72" offset="0%"/><stop stop-color="#01ACC9" stop-opacity="0" offset="100%"/></linearGradient><linearGradient x1="50.02%" y1="100%" x2="50.02%" y2="0%" id="m"><stop stop-color="#015C72" offset="0%"/><stop stop-color="#01ACC9" stop-opacity="0" offset="100%"/></linearGradient><linearGradient x1="49.98%" y1="99.952%" x2="49.98%" y2="0%" id="n"><stop stop-color="#015C72" offset="0%"/><stop stop-color="#01ACC9" stop-opacity="0" offset="100%"/></linearGradient><linearGradient x1="49.994%" y1="100%" x2="49.994%" y2=".013%" id="o"><stop stop-color="#015C72" offset="8%"/><stop stop-color="#01C5C9" stop-opacity="0" offset="86%"/></linearGradient></defs><g fill-rule="nonzero" fill="none"><path id="Path" fill="#007FE9" d="M1170.15 30.82h-36.5v61.05h-32.25v36.51h32.25v137.28h36.5v-137.28h33.47v-36.51h-33.47z"/><path id="Path" fill="#01BBBA" d="M661.51 30.82h-36.51v61.05h-32.24v36.51h32.24v137.28h36.51v-137.28h33.46v-36.51h-33.46z"/><path fill="#01BBBA" d="M534.96 96.53h36.51v169.12h-36.51zM534.96 30.82h36.51v31.03h-36.51z"/><path d="M802.87 91.87c-43.056.005-80.026 30.62-88.057 72.92-8.031 42.3 15.146 84.335 55.204 100.119 40.058 15.784 85.68.859 108.663-35.549l-30.85-19.51c-10.81 17.14-30.426 26.642-50.577 24.499-20.151-2.143-37.33-15.559-44.293-34.589h139.55v-18.25c-.055-49.484-40.156-89.585-89.64-89.64zm-49.91 71.39c7.664-20.95 27.597-34.882 49.905-34.882s42.241 13.933 49.905 34.882h-99.81z" id="Shape" fill="#007FE9"/><path d="M495.96 166c-6.23-9.49-16.39-17.59-30.21-24.09l-10.64-5 .35-.25c-16.62-5.83-33.25-7.71-44.34-8.27h-14.13v-66.5h19.28c12.54 0 22.24 2.87 28.85 8.54 6.93 6 10.44 14 10.44 23.87 0 10.44-3.65 18.89-10.84 25.11-1.293 1.09-2.674 2.07-4.13 2.93 8.244 1.732 16.316 4.198 24.12 7.37 8-6 13.83-12.48 17.28-19.15 3.53-6.972 5.318-14.696 5.21-22.51 0-13-3.79-23.87-11.59-33.35s-18.32-16-31.86-19.62h-.1c-9.82-2.74-25.91-4.13-47.82-4.13h-32v234.35h62.61c18.86 0 33.67-2.62 44-7.78 10.35-5.253 19.032-13.287 25.07-23.2 6.467-10.308 9.847-22.252 9.74-34.42.02-13.05-3.11-24.45-9.29-33.9zm-36.17 59.53c-8.14 5.91-22.49 8.78-43.87 8.78h-18.93v-77.79h16.9c20.42 0 34.91 3.52 44.29 10.76 9.81 7.58 14.78 18 14.78 30.94 0 11.64-4.6 21.09-13.17 27.34v-.03z" id="Shape" fill="#01BBBA"/><path d="M957.47 96.53h-30.11v31.15c7.396-12.646 17.722-23.329 30.11-31.15zM1368.65 96.46h30.07v31.14c-7.384-12.639-17.697-23.319-30.07-31.14zM1084.79 167.34c-2.439-33.809-26.098-62.329-58.874-70.972-32.776-8.643-67.422 4.502-86.216 32.712-8.148 12.328-12.444 26.803-12.34 41.58v95h36.51v-94.16c0-23.66 19.36-43.52 43-43.12 23.051.43 41.521 19.225 41.55 42.28v95h36.5v-96.17l-.13-2.15z" id="Path" fill="#007FE9"/><path d="M251.74 265c-6.76 0-12.24-5.48-12.24-12.24v-93.39h24.49v93.42c-.017 6.752-5.498 12.216-12.25 12.21z" id="Path" fill="url(#a)"/><path d="M201.6 303c-3.208 0-6.285-1.275-8.552-3.545-2.268-2.269-3.54-5.347-3.538-8.555v-131.53h24.19v131.53c0 6.683-5.417 12.1-12.1 12.1z" id="Path" fill="url(#b)"/><path d="M146 322c-6.795-.006-12.3-5.515-12.3-12.31v-150.32h24.66v150.33c-.003 3.272-1.308 6.408-3.627 8.716-2.319 2.308-5.462 3.598-8.733 3.584z" id="Path" fill="url(#c)"/><path d="M34.54 264.85c-6.795-.006-12.3-5.515-12.3-12.31v-93.17h24.61v93.17c0 3.265-1.297 6.396-3.606 8.704-2.309 2.309-5.44 3.606-8.704 3.606z" id="Path" fill="url(#d)"/><path d="M158.48 293.7c-6.529.003-12.791-2.589-17.408-7.205-4.617-4.616-7.212-10.877-7.212-17.405v-59.49h24.62v84.1z" id="Path" fill="url(#e)"/><path d="M92.09 303h-1.1c-3.115 0-6.103-1.238-8.305-3.442s-3.438-5.193-3.435-8.308v-131.88h24.58v131.88c0 6.485-5.255 11.744-11.74 11.75z" id="Path" fill="url(#f)"/><path d="M295.51 121.46c-1.76-67.28-55.54-121.46-121.4-121.46-65.86 0-119.65 54.18-121.41 121.46h-23.34c-2.922-.008-5.689-1.312-7.556-3.559s-2.641-5.207-2.114-8.081c4.488-24.68 22.096-44.938 45.91-52.82 4.697-7.868 10.229-15.207 16.5-21.89-46.044 2.597-82.062 40.673-82.1 86.79v.35c.142 10.631 8.798 19.175 19.43 19.18h256.7c5.155.003 10.1-2.043 13.746-5.687 3.646-3.644 5.694-8.588 5.694-13.743v-.57l-.06.03zm-121.4-99.12c50.16 0 91.79 38.27 98.71 87.91.393 2.82-.453 5.671-2.32 7.82-1.867 2.149-4.573 3.385-7.42 3.39h-188.64c1.75-54.97 45.78-99.12 99.67-99.12z" id="Shape" fill="url(#g)"/><path d="M272.91 112.38s-.83 29.18-50.4 29.08c-49.57-.1 1.58-20 1.58-20h37.85s9.59 1.21 10.97-9.08z" id="Path" fill="url(#h)"/><path d="M19.71 112.65s.83 29.18 50.4 29.08c49.57-.1-1.58-20-1.58-20h-37.85s-9.59 1.21-10.97-9.08z" id="Path" fill="url(#i)"/><path d="M82.01 35s-33.73.7-57.87 26.93 12.3 14.07 12.3 14.07c8.185-8.551 18.174-15.168 29.24-19.37 0 0 12.15-18.27 16.33-21.63z" id="Path" fill="url(#j)"/><path d="M103.8 274c-6.527 0-12.787-2.593-17.402-7.208s-7.208-10.875-7.208-17.402v-59.53h24.61v84.14z" id="Path" fill="url(#k)"/><path d="M46.85 243.59c-13.584 0-24.599-11.006-24.61-24.59v-59.52h24.61v84.11z" id="Path" fill="url(#l)"/><path d="M239.41 243.59c13.584 0 24.599-11.006 24.61-24.59v-59.52h-24.61v84.11z" id="Path" fill="url(#m)"/><path d="M189.3 274c6.527 0 12.787-2.593 17.402-7.208s7.208-10.875 7.208-17.402v-59.53h-24.61v84.14z" id="Path" fill="url(#n)"/><path d="M440.66 122.38s20.16-11.28 13.76-37.21 31.56-9.12 31.56-9.12 9.47 32.6-21.46 53.84c0 0-14.16-6.26-23.86-7.51z" fill="url(#o)"/><path d="M1362.22 109.09v.28c-37.055-27.331-88.789-22.143-119.68 12-30.891 34.143-30.891 86.137 0 120.28s82.626 39.33 119.68 12v12h36.5v-92.31c-2.462-25.637-15.739-49.008-36.5-64.25zm-53.14 125.56c-29.348 0-53.14-23.792-53.14-53.14s23.792-53.14 53.14-53.14 53.14 23.792 53.14 53.14c-.033 29.335-23.805 53.107-53.14 53.14z" fill="#007FE9"/></g></svg>